<svg xmlns="http://www.w3.org/2000/svg" viewBox="0 0 400 150" fill="currentColor">
  <path opacity=".5" fill="none" d="M0 0h400v150H0z"/>
  <circle cx="100" cy="75" r="44"/>
  <path d="M363.47 12.5H222.53c-13 0-23.53 10.88-23.53 24.3v76.39c0 13.42 10.53 24.3 23.53 24.3h140.95c12.99 0 23.53-10.88 23.53-24.3V36.8c-.01-13.42-10.54-24.3-23.54-24.3zM224.76 25.41h108.91c5.41 0 9.79 4.53 9.79 10.12s-4.38 10.12-9.79 10.12H224.76c-5.41 0-9.79-4.53-9.79-10.12s4.38-10.12 9.79-10.12zm-2.29 24.28h81c4.14 0 7.5 3.47 7.5 7.75 0 4.28-3.36 7.75-7.5 7.75h-81c-4.14 0-7.5-3.47-7.5-7.75 0-4.28 3.36-7.75 7.5-7.75zm138.77 74.9H224.76c-5.41 0-9.79-4.53-9.79-10.12s4.38-10.12 9.79-10.12h136.47c5.41 0 9.79 4.53 9.79 10.12s-4.37 10.12-9.78 10.12z"/>
</svg>
