<?xml version="1.0" standalone="no"?>
<!DOCTYPE svg PUBLIC "-//W3C//DTD SVG 20010904//EN"
 "http://www.w3.org/TR/2001/REC-SVG-20010904/DTD/svg10.dtd">
<svg version="1.0" xmlns="http://www.w3.org/2000/svg"
 width="700.000000pt" height="700.000000pt" viewBox="0 0 700.000000 700.000000"
 preserveAspectRatio="xMidYMid meet">
<metadata>
Created by potrace 1.11, written by Peter Selinger 2001-2013
</metadata>
<g transform="translate(0.000000,700.000000) scale(0.100000,-0.100000)"
fill="#000000" stroke="none">
<path d="M1649 6995 c-3 -2 -19 -6 -37 -10 -252 -44 -462 -301 -463 -567 0
-40 2 -82 5 -93 3 -11 9 -36 14 -55 45 -179 263 -387 462 -440 25 -7 94 -12
153 -11 84 1 117 -3 145 -16 22 -10 166 -146 350 -330 284 -284 312 -315 312
-345 0 -18 -9 -44 -20 -58 l-19 -25 -713 -2 c-392 -1 -744 -2 -783 -4 -211 -7
-426 -101 -579 -252 -158 -156 -219 -280 -291 -602 -35 -155 -85 -415 -99
-520 -4 -22 -8 -51 -11 -65 -2 -14 -7 -46 -10 -72 -10 -92 -16 -143 -20 -167
-2 -13 -7 -67 -11 -120 -4 -53 -8 -98 -10 -102 -17 -30 -25 -825 -11 -1064 6
-115 22 -304 32 -392 11 -94 15 -129 19 -148 2 -11 7 -46 11 -79 7 -59 12 -91
20 -136 3 -14 8 -42 11 -64 3 -21 8 -48 10 -60 2 -11 7 -37 10 -56 9 -55 52
-255 80 -370 45 -185 81 -272 157 -384 45 -67 178 -202 208 -211 10 -4 19 -10
19 -15 0 -15 203 -109 285 -132 l80 -23 2515 -2 c1613 -1 2533 1 2565 8 28 5
61 12 75 14 46 8 159 53 218 85 79 44 190 130 232 180 19 23 47 56 63 73 42
49 124 222 147 312 20 77 57 236 66 284 3 12 11 51 19 85 14 62 59 324 70 406
3 25 7 61 10 80 46 348 60 583 60 990 0 264 -8 523 -20 625 -2 17 -6 65 -10
108 -4 43 -8 88 -10 100 -2 12 -6 47 -10 77 -8 79 -14 131 -20 160 -2 14 -7
48 -10 75 -4 28 -8 57 -10 65 -2 8 -7 30 -10 48 -3 17 -7 47 -10 65 -36 213
-123 572 -161 659 -113 257 -353 457 -624 517 -95 21 -197 24 -905 26 -401 1
-733 2 -737 3 -21 5 -48 49 -48 80 0 31 26 59 314 348 199 198 328 320 350
329 38 16 58 18 176 16 111 -2 173 15 264 71 177 108 297 264 332 429 6 31 6
156 -1 189 -54 272 -276 469 -547 487 -189 12 -358 -75 -500 -257 -96 -123
-127 -216 -125 -369 0 -60 -4 -121 -11 -141 -9 -26 -132 -155 -465 -486 -473
-471 -481 -478 -597 -509 -105 -27 -244 -2 -340 62 -50 33 -899 882 -917 918
-12 22 -17 65 -18 160 -1 88 -7 146 -19 181 -34 107 -168 278 -276 351 -84 57
-174 85 -281 89 -53 2 -98 1 -100 -1z m616 -2890 c301 -28 496 -109 665 -276
52 -51 170 -213 170 -233 0 -3 11 -30 25 -58 14 -29 29 -66 34 -83 62 -207 80
-310 97 -555 11 -163 7 -1703 -5 -1746 -13 -50 -69 -116 -118 -139 -25 -12
-62 -18 -119 -18 -69 0 -91 4 -131 24 -53 28 -100 86 -112 140 -5 20 -8 377
-9 795 0 692 -4 883 -17 984 -3 19 -7 57 -10 84 -9 77 -34 174 -66 256 -75
192 -206 297 -419 335 -150 27 -499 9 -608 -31 -52 -19 -87 -54 -115 -114 -21
-45 -21 -49 -22 -1175 l-1 -1130 -21 -41 c-28 -53 -78 -101 -122 -116 -46 -15
-166 -14 -213 1 -47 15 -90 56 -119 111 l-23 45 -1 1310 c0 721 3 1330 7 1355
5 25 21 63 36 85 43 61 99 87 241 110 19 3 37 7 40 9 3 2 24 7 46 10 22 4 47
8 55 11 8 2 33 6 55 9 22 3 72 9 110 15 119 17 146 20 270 27 66 4 121 7 122
8 5 4 215 -3 278 -9z m2910 -9 c272 -59 466 -182 627 -396 52 -70 137 -219
150 -265 4 -11 16 -47 28 -80 22 -60 54 -175 64 -228 3 -15 10 -55 16 -88 13
-71 16 -223 6 -293 -15 -106 -60 -205 -122 -272 -36 -38 -67 -57 -130 -79 -45
-16 -111 -18 -779 -19 -694 -2 -731 -3 -758 -20 -55 -37 -67 -102 -42 -216 2
-8 6 -24 8 -35 47 -208 127 -363 249 -486 172 -174 534 -254 923 -205 53 7
174 33 205 44 72 25 176 2 221 -50 114 -130 66 -327 -93 -384 -57 -20 -216
-59 -288 -70 -19 -3 -40 -7 -46 -9 -24 -7 -202 -19 -299 -19 -115 1 -247 11
-320 25 -27 6 -63 13 -80 16 -126 21 -374 129 -478 207 -323 242 -506 627
-544 1141 -18 242 3 573 46 723 5 18 10 33 9 35 -1 7 27 102 48 162 106 298
301 561 517 699 127 81 296 145 450 169 104 17 321 13 412 -7z"/>
<path d="M4799 3644 c-262 -61 -477 -307 -552 -629 -21 -88 -8 -139 46 -179
27 -20 37 -21 625 -20 664 0 632 -3 666 68 28 59 -2 247 -61 380 -27 61 -96
173 -130 211 -33 37 -125 105 -170 126 -119 54 -300 72 -424 43z"/>
</g>
</svg>
