<svg version="1.1" id="Layer_1" xmlns="http://www.w3.org/2000/svg" x="0" y="0" fill="currentColor" viewBox="0 0 393.3 450.1" xml:space="preserve">
  <path class="st0" d="M388 57.9c-10-69.4-142.2-53.4-121 22 17.4 59 139.6 49.8 121-22zM225.9 3.6c-24.8-14.1-55.8 16-33.3 38.6 25.2 26.5 64.7-18.3 33.3-38.6zM336.2 363.4c-.3-1.2-.6-2.3-1.1-3.3-.3-1.4-.6-2.7-1.1-4.1-6.4-19-27.2-29.2-46.4-24.3-18.6 4.8-32.2 23-31.6 42.2.7 22.6 21.6 39.2 43.7 37.5 24.6-1.9 41.8-23.6 36.5-48z"/>
  <path class="st0" d="M390.2 238.9c-7.6-19.6-24-32.9-38.8-47-4.5-44.7-54.5-58.7-92.9-55.2-17.1-2.6-49.5 13.4-54.2-11.1.8-34-28.8-71.1-65.2-58.9-14.6 11.4-21.2-10.2-37-12-21.2 1.6-6.5-20.6-21.3-31.7-33.3-34.7-54.4-7.5-71 24.4-26.5 60.6 22.7 82.6 70.3 74.7-9.9 40.2 40.8 96.6-5 125.9C39 277.1-46 336.4 31.1 371.7c-9.1 23.3-7.8 59.5 19.8 73.1 26.9 14.4 54.8-3.5 66.4-28.6 16.2-.6 32 6.5 48.2 4.8 61.1-.7 52.7-61.9 91.6-89 17.3-14.9 36-21 58.4-17.1 40.9 2.7 90.8-30.6 74.7-76zm-228.9-90.8c-11.5 0-20-9.4-20.5-20.5s9.8-20.5 20.5-20.5c11.5 0 20 9.4 20.5 20.5.5 11-9.7 20.5-20.5 20.5zm98.5 129.7c-9.9 2.6-21.3 1.5-31-1.5-10.5-3.3-20.8-9.1-25.8-19.3-6.8-13.8-2.4-29.6 10.5-37.9 5-3.2 10.8-3.5 16-1.9 1.2-.2 2.4-.3 3.7-.3 5.5 0 10.3 1.9 15.3 3.7 11.4 4.1 22.8 7.6 28.8 19.1 7.8 15.3-1.1 33.8-17.5 38.1z"/>
</svg>
