<?xml version="1.0" encoding="utf-8"?>
<!-- Generator: Adobe Illustrator 24.1.2, SVG Export Plug-In . SVG Version: 6.00 Build 0)  -->
<svg version="1.1" id="Layer_1" xmlns="http://www.w3.org/2000/svg" xmlns:xlink="http://www.w3.org/1999/xlink" x="0px" y="0px"
	 viewBox="0 0 393.3 450.1" style="enable-background:new 0 0 393.3 450.1;" xml:space="preserve">
<style type="text/css">
	.st0{fill:#EC008C;}
</style>
<path class="st0" d="M390.2,238.9c-7.6-19.6-24-32.9-38.8-47c-4.5-44.7-54.5-58.7-92.9-55.2c-17.1-2.6-49.5,13.4-54.2-11.1
	c0.8-34-28.8-71.1-65.2-58.9c-14.6,11.4-21.2-10.2-37-12c-21.2,1.6-6.5-20.6-21.3-31.7c-33.3-34.7-54.4-7.5-71,24.4
	c-26.5,60.6,22.7,82.6,70.3,74.7c-9.9,40.2,40.8,96.6-5,125.9c-36.1,29.1-121.1,88.4-44,123.7c-9.1,23.3-7.8,59.5,19.8,73.1
	c26.9,14.4,54.8-3.5,66.4-28.6c16.2-0.6,32,6.5,48.2,4.8c61.1-0.7,52.7-61.9,91.6-89c17.3-14.9,36-21,58.4-17.1
	C356.4,317.6,406.3,284.3,390.2,238.9z"/>
<path class="st0" d="M388,57.9c-10-69.4-142.2-53.4-121,22C284.4,138.9,406.6,129.7,388,57.9z"/>
<path class="st0" d="M225.9,3.6c-24.8-14.1-55.8,16-33.3,38.6C217.8,68.7,257.3,23.9,225.9,3.6z"/>
</svg>
