<svg version="1.1" id="_x31_b37a06e-2296-4a84-9c89-e0e8ee397ca1" xmlns="http://www.w3.org/2000/svg" x="0" y="0" width="100%" viewBox="0 0 1015.6 783.5" xml:space="preserve">
  <style>
    .st0{opacity:.1;fill:#f56565;enable-background:new}.st1{fill:none;stroke:#535461;stroke-width:2;stroke-miterlimit:10}.st2{fill:#f56565}.st3{opacity:.25;enable-background:new}.st5{fill:#f6f7f9}.st6,.st7{opacity:.2}.st7{fill:#f56565;enable-background:new}.st9{fill:#cc818c}.st10{fill:#444053}.st11,.st12{opacity:.1;enable-background:new}.st12{opacity:5.000000e-02}.st13{fill:#ff748f}.st14{fill:#575988}.st15{fill:#dce6f2}.st16{opacity:.5;fill:#575988;enable-background:new}.st17{fill:#67647e}.st20{opacity:.1}.st24{fill:#ffd037}.st26{fill:#9d9cb5}
  </style>
  <path class="st0" d="M637.1 126.3c-42.3 26.7-97.1 25-145.2 11.1s-92.2-38.7-139-56.3c-39.3-14.8-80.4-24.4-122.1-28.8-59.7-6.2-126.3 1.3-167.9 44.6-46.3 48.1-42.8 135 7.3 179.2 25.5 22.5 58.8 33.5 87.9 51.1s56 46.7 53.5 80.6c-2.3 31.4-29 55.4-56.5 70.5-21.3 11.7-47.6 24.4-50.2 48.6-2.5 23.4 19.6 41.7 40.7 52.1 68.8 34 153.6 33.7 222.1-.9 24.5-12.3 46.9-28.7 72.6-38.3 67.3-25.2 141.5.2 212.8 9.5 60.5 7.8 122 3.8 181-11.9 35.3-9.4 70.8-23.8 95.5-50.7 17.9-19.3 29-43.8 39.5-68 11.2-25.8 21.9-51.8 32.2-77.9 6.2-15.7 12.3-31.7 13.8-48.5 2.9-30.4-9.3-60.5-25.9-86.2-39.4-61-105.7-103.9-177.5-114.8s-147.7 10.5-203.4 57"/>
  <ellipse class="st0" cx="135.7" cy="757" rx="135.7" ry="26.5"/>
  <ellipse class="st0" cx="539" cy="701.6" rx="284.5" ry="26.5"/>
  <path class="st1" d="M732.1 512.6s39.9-70.7 100-91c25.2-8.5 47.2-24.6 62.3-46.6 7.1-10.4 13.3-21.5 18.4-33"/>
  <path class="st2" d="M950.5 328.9c-6.8 6.6-38.7 13.5-38.7 13.5s7.8-31.6 14.7-38.3c6.8-6.6 17.8-6.5 24.4.4 6.6 6.8 6.5 17.7-.4 24.4zM932.5 386.2c-9.3 1.9-39.8-9.7-39.8-9.7s23.8-22.3 33.1-24.2c9.4-1.9 18.4 4.2 20.3 13.6 1.8 9.3-4.3 18.4-13.6 20.3zM866.8 448.2c-9-3.1-29.5-28.5-29.5-28.5s31.8-7.3 40.8-4.2c8.9 3.3 13.5 13.3 10.1 22.2-3.2 8.7-12.6 13.3-21.4 10.5zM806.6 483.9c-9.4-1.5-33.9-23.1-33.9-23.1s30.1-12.5 39.5-11c9.4 1.6 15.8 10.4 14.2 19.9-1.5 9.4-10.4 15.7-19.8 14.2zM866 351.8c0 9.5 17.3 37.2 17.3 37.2s17.3-27.7 17.3-37.2c0-9.5-7.7-17.3-17.2-17.3s-17.3 7.7-17.4 17.3zM796.1 394.4c2.8 9.1 27.6 30.3 27.6 30.3s8.2-31.6 5.4-40.7c-2.8-9.1-12.5-14.2-21.7-11.3-9.1 2.9-14.2 12.6-11.3 21.7zM733.8 445.2c1.3 9.5 22.1 34.6 22.1 34.6s13.4-29.7 12.2-39.2c-1.3-9.5-10-16.1-19.4-14.8-9.5 1.3-16.1 9.9-14.9 19.4z"/>
  <path class="st3" d="M950.5 328.9c-6.8 6.6-38.7 13.5-38.7 13.5s7.8-31.6 14.7-38.3c6.8-6.6 17.8-6.5 24.4.4 6.6 6.8 6.5 17.7-.4 24.4zM932.5 386.2c-9.3 1.9-39.8-9.7-39.8-9.7s23.8-22.3 33.1-24.2c9.4-1.9 18.4 4.2 20.3 13.6 1.8 9.3-4.3 18.4-13.6 20.3zM866.8 448.2c-9-3.1-29.5-28.5-29.5-28.5s31.8-7.3 40.8-4.2c8.9 3.3 13.5 13.3 10.1 22.2-3.2 8.7-12.6 13.3-21.4 10.5zM806.6 483.9c-9.4-1.5-33.9-23.1-33.9-23.1s30.1-12.5 39.5-11c9.4 1.6 15.8 10.4 14.2 19.9-1.5 9.4-10.4 15.7-19.8 14.2zM866 351.8c0 9.5 17.3 37.2 17.3 37.2s17.3-27.7 17.3-37.2c0-9.5-7.7-17.3-17.2-17.3s-17.3 7.7-17.4 17.3zM796.1 394.4c2.8 9.1 27.6 30.3 27.6 30.3s8.2-31.6 5.4-40.7c-2.8-9.1-12.5-14.2-21.7-11.3-9.1 2.9-14.2 12.6-11.3 21.7zM733.8 445.2c1.3 9.5 22.1 34.6 22.1 34.6s13.4-29.7 12.2-39.2c-1.3-9.5-10-16.1-19.4-14.8-9.5 1.3-16.1 9.9-14.9 19.4z"/>
  <path class="st1" d="M734.4 511.2s7.8-80.8 54.5-123.7c19.6-18 33.2-41.6 38-67.8 2.3-12.4 3.4-25 3.4-37.7"/>
  <path class="st2" d="M859.6 254.8c-3.6 8.8-29.9 28-29.9 28s-5.7-32.1-2.1-41c4-8.7 14.2-12.5 22.9-8.5 8.1 3.6 12.1 12.9 9.1 21.5zM866.3 314.4c-7.8 5.5-40.4 7.3-40.4 7.3s12.7-30 20.5-35.5c7.9-5.4 18.6-3.4 24 4.4 5.4 7.8 3.6 18.3-4.1 23.8zM831.4 397.7c-9.5.8-38.5-14.1-38.5-14.1s26.1-19.5 35.6-20.3c9.5-.8 17.9 6.3 18.7 15.8.8 9.5-6.3 17.8-15.8 18.6zM790.8 454.8c-9.2 2.4-40.3-7.4-40.3-7.4s22.4-23.7 31.7-26.1c9.2-2.4 18.7 3.2 21.1 12.4s-3.3 18.7-12.5 21.1zM791.7 309.9c3.9 8.7 30.8 27 30.8 27s4.6-32.3.7-41c-3.9-8.7-14.1-12.7-22.8-8.8-8.7 3.8-12.6 14-8.7 22.8zM745 377.2c6.3 7.2 37.5 16.5 37.5 16.5s-5.3-32.2-11.6-39.4c-6.3-7.2-17.2-7.9-24.4-1.6-7.1 6.4-7.8 17.3-1.5 24.5zM708.7 448.9c5 8.1 34.2 22.7 34.2 22.7s.2-32.6-4.8-40.7c-5-8.1-15.6-10.7-23.8-5.7-8.1 4.9-10.6 15.6-5.6 23.7z"/>
  <linearGradient id="SVGID_1_" gradientUnits="userSpaceOnUse" x1="535.54" y1="78.54" x2="535.54" y2="784" gradientTransform="matrix(1 0 0 -1 0 784)">
    <stop offset="0" stop-color="gray" stop-opacity=".25"/>
    <stop offset=".54" stop-color="gray" stop-opacity=".12"/>
    <stop offset="1" stop-color="gray" stop-opacity=".1"/>
  </linearGradient>
  <path fill="url(#SVGID_1_)" d="M281.8 0v705.5h507.4V0z"/>
  <path class="st5" d="M286.3 6.2h498.5v26.9H286.3z"/>
  <g class="st6">
    <path class="st2" d="M286.3 6.2h498.5v26.9H286.3z"/>
  </g>
  <path class="st5" d="M286.3 33.1h498.5v666.2H286.3z"/>
  <circle class="st5" cx="299.4" cy="19.6" r="4.6"/>
  <circle class="st5" cx="311.8" cy="19.6" r="4.6"/>
  <circle class="st5" cx="324.1" cy="19.6" r="4.6"/>
  <g class="st6">
    <path class="st2" d="M375.3 74.2h320.5v12.6H375.3z"/>
  </g>
  <path class="st2" d="M653.2 74.2h42.6v12.6h-42.6z"/>
  <g class="st6">
    <path class="st7" d="M333.8 330.6h403.4v144.5H333.8z"/>
    <path class="st2" d="M737.3 330.6h-12v1h12v-1zm-24 0h-12v1h12v-1zm-24 0h-12v1h12v-1zm-24 0h-12v1h12v-1zm-24 0h-12v1h12v-1zm-24 0h-12v1h12v-1zm-24 0h-12v1h12v-1zm-24 0h-12v1h12v-1zm-24 0h-12v1h12v-1zm-24 0h-12v1h12v-1zm-24 0h-12v1h12v-1zm-24 0h-12v1h12v-1zm-24 0h-12v1h12v-1zm-24 0h-12v1h12v-1zm-24 0h-12v1h12v-1zm-24 0h-12v1h12v-1zm-24 0h-12v1h12v-1zm-18.5 4.6h-1v12h1v-12zm0 24h-1v12h1v-12zm0 24h-1v12h1v-12zm0 24h-1v12h1v-12zm0 24h-1v12h1v-12zm0 24h-1v12h1v-12zm15.1 18.9h-12v1h12v-1zm24 0h-12v1h12v-1zm24 0h-12v1h12v-1zm24 0h-12v1h12v-1zm24 0h-12v1h12v-1zm24 0h-12v1h12v-1zm24 0h-12v1h12v-1zm24 0h-12v1h12v-1zm24 0h-12v1h12v-1zm24 0h-12v1h12v-1zm24 0h-12v1h12v-1zm24 0h-12v1h12v-1zm24 0h-12v1h12v-1zm24 0h-12v1h12v-1zm24 0h-12v1h12v-1zm24 0h-12v1h12v-1zm24 0h-12v1h12v-1zm3.4-19.6h-1v12h1v-12zm0-24h-1v12h1v-12zm0-24h-1v12h1v-12zm0-24h-1v12h1v-12zm0-24h-1v12h1v-12zm0-24h-1v12h1v-12z"/>
  </g>
  <linearGradient id="SVGID_2_" gradientUnits="userSpaceOnUse" x1="1976.924" y1="-35.05" x2="1976.924" y2="475" gradientTransform="rotate(180 1059.42 362.885)">
    <stop offset="0" stop-color="gray" stop-opacity=".25"/>
    <stop offset=".54" stop-color="gray" stop-opacity=".12"/>
    <stop offset="1" stop-color="gray" stop-opacity=".1"/>
  </linearGradient>
  <path d="M14.5 448.4s4.3 10.8 2.7 13.5c0 0 .8 8 11.1 13.5s22 18.6 22 18.6c2 3.3 5.4 5.6 9.2 6.4.1 1.3.2 2 .2 2l.5.2c-.1.4-.2.9-.4 1.4-.3 1.1-.6 2.3-.8 3.5-1.7 7.8-2.7 17.5.7 22.9.5.7.9 1.5 1.3 2.3 4.7 9.9 1.5 22.3 1.5 22.3s4.1 28.1 5.9 32.7c1.3 3.2.1 7.7-.7 10.1-.4 1.1-.6 2.3-.6 3.5v10s-2 8.4-1 10.6-1.8 8.6-1.8 8.6-6.6 27.6-3.8 32.2 2.6 14.7 2.6 14.7 5.4 39.5 7.4 41c1.7 1.5 3.1 3.2 4.3 5.1 0 0-3.6 9-1.4 12.6.1.1.1.2.2.3-.4 1-1.3 3.5-1.8 5.4-.2.6-.3 1.4-.5 2.3-.3 1.7-.4 3.4-.4 5.1l-.2.1.2.2c0 .8.1 1.5.3 2.2.8 2.3 6.5 2.3 6.5 2.3s10.3 2.9 14.9 5.2 7.7 1.1 7.7 1.1c10.5 2.4 24-1.8 28.1-2.6s5.7-6.1.6-7.1c-.6-.1-1.3-.3-1.9-.6-2.5-1.1-4.7-2.8-6.3-5.1-3.4-3.3-7-6.3-10.7-9.2-2.6-1.9-4.8-4.2-6.7-6.8-1-1-2.4-1.7-3.8-1.9 1-1.7.6-3.8-.9-5.1.9-1.8.4-3.9-1.2-5.1l-1.9-1.5.4-.5c1.2-1.4 1.3-3.3.4-4.8-.8-1.4-1.6-3.8-1.8-8.1-.5-9.9-3.1-13.7-3.1-13.7l1.5-45.1c-.1-2.4-.1-4.9 0-7.3.3-2.8 5-1 5.7-1.7s.9-4.4 2.9-5.4c.7-.4 1.4-1.6 1.9-3.1.9-2.8 1.1-5.9.5-8.8-.3-1.4.1-2.9.9-4 2.3-3 1.5-13.4 1.5-13.4l3.5-21.7c5.6 18.4 12.7 40.6 15.1 42.2 4.1 2.8 3.6 6.6 3.6 6.6-3.3 4.1-2 21.5-2 21.5s0 48.4 2.4 51.7 7 13.4 7 13.4-13.6 12-3 18.1l.4 5.1-.2.2c-1 1.2-1.7 2.7-2 4.2l-.1.1c-.2 1.6.5 3.2 3.5 3.9 7.1 1.6 32.1 1.5 32.1 1.5l14 2.2s24 2.3 26.7-5.1-2.1-7-2.1-7h-.2l-10-.8s-12.7-4.9-17.3-8.2c-3.7-2.8-7.1-5.9-10.4-9.3-.9-.1-1.8 0-2.6.5l-.4-.4-.7-.7 2.6-4c2.6-4.6-7.7-13.2-7.7-13.2s2.8-10.6 1.7-11.1-1.7-10.2-1.7-10.2 2.5-35 1.5-38.3c-.5-1.5.3-3.1 1.2-4.4 1.4-2 2.1-4.4 2-6.8-.1-2 .2-4.3 1.7-5.8 3.1-3.3 0-17.5 0-17.5l-2.5-18.8v-29.8c0-5.7-1.1-11.4-3.1-16.8-1.3-3.7-2.2-7.6-2.6-11.5l.9.3c-.3-.2-.6-.4-.9-.7 0-.5-.1-1-.1-1.5-.8-9.4-5.8-18.5-9.3-23.9-.8-3.1.1-16.2.1-16.2 4-6.8.2-16.7.2-16.7s-4-46.7-6.5-53.2-3.6-46.5 2.3-46.2 44.2-19 44.2-19-1-1.5 11.7-6.6 31-21.1 31-21.1l25.4-30.4h-.3l.5-.2c5.9-1.7 10.7-5.9 13.3-11.5 4.4-9.7-4.4-22.7-10.2-28.6l-5.5-3c-1.5 1.2-.9 6.5-3.3 12.2-2 5.1-3.7 10.3-5 15.6l-.3 1-.2-.4-13.4 10.6L219 300s-27.9 13.5-31.4 16.9-4.6 2.5-7.6 3.2-3.5 2.9-4.4 2.7-2.7 2.7-4 2.3-4.2 1.1-6.1 1.5-15.5 6.1-15.5 6.1c-8.4-4.2-31.2-2.5-31.2-2.5s-7.5-4.4-9.6 0c-1.2 2.5-3.7 4.2-6.5 4.2l-9.1-3.9c0-.2 0-.5.1-.7v-.1c.1-.6.2-1.1.3-1.6 15.5-6.1 23-23.6 16.9-39.1-1.5-3.7-3.7-7.1-6.5-10l-.8-.8c.9-.4 1.8-1 2.6-1.6.3-.2.5-.4.6-.7.1-.2 0-.4-.1-.6-.2-.5-.5-.9-1-1.1-2.8-1.5-5.8-1-8.2-3.4-.6-.5-1-1.2-1.3-1.9-.3-.8-.3-1.6 0-2.4.7-1.8 2.8-3 2.7-4.9h-.1v-.3c-2.3.9-4.7 1.3-7.1 1.2l.4-2h.2l.2-1.1h-.2l.1-.3-6.7 1.8c-.5.2-1 .2-1.5-.1-.3-.3-.4-.7-.5-1-.6-1.4-2.4-1.9-3.9-1.5-1.4.5-2.8 1.3-4 2.2-4.4 2.6-9.7 3-14.7 3.6s-10.4 1.7-14 5.4c-4.7 4.9-4.7 12.5-7.6 18.6-.6 1-1 2-1.4 3.1-.3 1.6-.3 3.3.1 4.9.7 4.7 1.5 9.5 4 13.5l-.3-.3c.3.5.6 1 1 1.6 1.8 2.5 4.3 4.6 6.2 7-.1-.2-.3-.4-.4-.7 1.1 1.2 1.9 2.6 2.5 4.1.7 1.9.8 4 1.6 5.8.3.7.6 1.3 1.1 1.9 1.3 1.3 3.1 1.9 4.8 1.7-.8 2.2-1.8 4.2-3 6.2l-.1.3c-.5 0-1 0-1.5.2-2.2.4-9.8 6.9-9.8 6.9l-13.6 12c-20.5 16-15.9 40.9-15.9 40.9v12.6s-4 13.5 0 27l-.3 11.6zm29.9.2s7.1-5.7 4.6-9.1c-.8-1.1-1.1-3.4-1.2-6L57 454s5.6 8.9 2.7 12.9v.1l-11-12.8s-.4-5.6-4.3-5.6z" fill="url(#SVGID_2_)"/>
  <path class="st9" d="M243 286.3l6 11.7c1.9-.2 3.8-.6 5.6-1.2 5.8-1.7 10.6-5.9 13.2-11.4 5.4-11.9-9.3-29-13.4-31.2-4.1-2.2-2.3 4.5-5.4 12-2 5.1-3.6 10.2-4.9 15.5-.6 2.7-1.1 4.6-1.1 4.6zM51.5 347.1l9.6 14.4s45.5 21.7 36.8-3.8c-3.8-11.2-4.3-19.5-3.6-25.1v-.2c.9-7.1 3.6-10.2 3.6-10.2s-44.4-22.7-37.8-7.2c1.4 3.2 1.9 6.7 1.6 10.2-.6 5-2.2 9.8-4.8 14.2-1.4 2.8-3.3 5.4-5.4 7.7z"/>
  <path class="st10" d="M65.3 631.2s-6.6 27.4-3.8 32 2.5 14.6 2.5 14.6 5.3 39.3 7.3 40.8c1.6 1.5 3.1 3.1 4.3 5 0 0-3.6 8.9-1.4 12.6.3.6.8 1 1.4 1.3 3.4 1.4 15.8-4.9 22.9-8.8.9-.5 1.6-1.3 1.9-2.2.5-1.5.1-3.3-1.1-4.3.9-1.8.4-3.9-1.2-5.1l-1.9-1.5.4-.5c1.1-1.4 1.3-3.3.4-4.8-.8-1.4-1.6-3.8-1.8-8-.5-9.8-3-13.6-3-13.6l1.5-44.8c-.1-2.4-.1-4.9 0-7.3.3-2.8 4.9-.9 5.7-1.7s.9-4.3 2.9-5.3c.7-.4 1.3-1.6 1.8-3.1.9-2.8 1.1-5.8.5-8.7-.3-1.4.1-2.9.9-4 2.3-3 1.5-13.3 1.5-13.3l3.5-21.6c5.5 18.3 12.6 40.4 14.9 42 4 2.8 3.5 6.5 3.5 6.5-3.3 4-2 21.4-2 21.4s0 48.1 2.4 51.3 7 13.3 7 13.3-13.5 12-2.9 18.1l.1.1c10.8 6 33.2-10.8 33.2-10.8l-2.4-2.3-.7-.7 2.6-4c2.6-4.5-7.6-13.1-7.6-13.1s2.7-10.6 1.7-11.1-1.7-10.1-1.7-10.1 2.5-34.7 1.5-38c-.5-1.5.3-3 1.2-4.3 1.4-2 2.1-4.3 1.9-6.8-.1-2 .2-4.2 1.7-5.8 3-3.3 0-17.4 0-17.4l-2.5-18.6V559c0-5.7-1-11.3-3-16.7-1.6-4.3-2.5-8.8-2.8-13.4-.8-9.5-6-18.8-9.4-24.1-1.8-2.8-3.2-4.5-3.2-4.5l-80.5-3.2s-1.3 3.6-2.6 8.6c-.3 1.1-.6 2.2-.8 3.4-1.7 7.7-2.7 17.3.7 22.7.5.7.9 1.5 1.2 2.3 4.6 9.8 1.5 22.1 1.5 22.1s4 27.9 5.8 32.5c1.3 3.2.1 7.7-.7 10-.4 1.1-.6 2.3-.6 3.5v9.9s-2 8.3-1 10.6-1.7 8.5-1.7 8.5z"/>
  <path class="st11" d="M61.6 532.5c.5.7.9 1.5 1.2 2.2l4.5-.3c-.4-2.3 2.6-24.2 2.6-24.2l-9.1-.5c-1.6 7.9-2.6 17.4.8 22.8z"/>
  <path class="st10" d="M60.8 531.8c.5.7.9 1.5 1.2 2.3l4.5-.3c-.4-2.3 2.6-24.2 2.6-24.2l-9.1-.5c-1.6 7.7-2.6 17.3.8 22.7z"/>
  <path class="st12" d="M60.8 531.8c.5.7.9 1.5 1.2 2.3l4.5-.3c-.4-2.3 2.6-24.2 2.6-24.2l-9.1-.5c-1.6 7.7-2.6 17.3.8 22.7z"/>
  <path class="st11" d="M74.2 736.2c.3.6.8 1 1.4 1.3 3.4 1.4 15.8-4.9 22.9-8.8.9-.5 1.6-1.3 1.9-2.2-4-.7-6.7 3.8-6.7 3.8-2.8-1.7-6.5-.9-8.3 1.9v.1c-3.5 5.1-10.9 3-10.9 3l-.3.9z"/>
  <path class="st13" d="M72.1 751.6c.8 2.3 6.4 2.3 6.4 2.3s10.1 2.9 14.7 5.2 7.6 1.1 7.6 1.1c10.4 2.4 23.7-1.8 27.8-2.6s5.6-6 .6-7c-.6-.1-1.3-.3-1.9-.6-2.5-1.1-4.6-2.8-6.2-5-3.4-3.3-6.9-6.3-10.6-9.2-2.5-1.9-4.8-4.2-6.6-6.7-5.9-5.2-10.1 2-10.1 2-2.8-1.7-6.5-.9-8.3 1.9v.1c-3.5 5.1-10.9 2.9-10.9 2.9s-1.3 3.4-1.9 5.9c-.2.6-.3 1.4-.5 2.3-.5 2.4-.7 5.7-.1 7.4z"/>
  <circle class="st14" cx="89.4" cy="735" r=".7"/>
  <circle class="st14" cx="95.3" cy="740.5" r=".7"/>
  <circle class="st14" cx="101.3" cy="745.5" r=".7"/>
  <circle class="st14" cx="98.2" cy="743.3" r=".7"/>
  <circle class="st14" cx="92.2" cy="737.6" r=".7"/>
  <path class="st15" d="M72.1 751.6c.8 2.3 6.4 2.3 6.4 2.3s10.1 2.9 14.7 5.2 7.6 1.1 7.6 1.1c10.4 2.4 23.7-1.8 27.8-2.6s5.6-6 .6-7c-.6-.1-1.3-.3-1.9-.6-4.4 1.5-9 2.4-13.6 2.6-10.3.4-18.4 0-18.4 0l-10.4-3.3c-2-1.2-4.1-2-6.4-2.3-2.2-.2-4.9-1.8-6.4-2.8-.4 2.4-.6 5.7 0 7.4z"/>
  <path class="st16" d="M97.9 758.1c.6 0 1.2-.1 1.7-.2l-.1-.7c-2.1.3-4.3 0-6.2-.9-.9-.4-1.9-.8-2.8-1.2-1.1-.5-2.2-1-3.3-1.4l-1-.4c-.6-.2-1.1-.4-1.7-.6-.3-.1-.6-.3-.9-.4-.7-.4-1.5-.7-2.3-.9-.4-.1-.8-.1-1.3-.2-.4 0-.8-.1-1.1-.1-.8-.2-1.5-.5-2.2-.8-.7-.4-1.5-.7-2.3-.9l-.6-.1c-.6 0-1.2-.2-1.6-.6l-.6.5c.6.5 1.3.8 2.1.8l.5.1c.8.2 1.5.5 2.2.8.7.4 1.5.7 2.3.9.4.1.8.1 1.2.2.4 0 .8.1 1.2.2.8.2 1.5.5 2.2.8.3.2.6.3.9.4.6.3 1.2.5 1.7.6l1 .3c1.1.4 2.2.9 3.2 1.4s1.8.9 2.8 1.2c1.7.8 3.3 1.2 5 1.2z"/>
  <path class="st11" d="M95.5 633s-5.2-7.5-14.2-7.5-12.8-1-12.8-1 5.7 3.4 9.7 3.8 17.3 4.7 17.3 4.7zM92.5 634.8s-4.7-3.3-7.4-3.4-5-.4-5-.4c1.3.9 2.7 1.6 4.1 2 2.2.7 8.3 1.8 8.3 1.8zM91.5 637.1s-7.1.6-7.2 2.5M157.7 530.9c-.4.1-6.7-6.6-7.2-9.3-.4-1.7-1.3-3.1-2.8-4.1 0 0-4.1 1.6-.4 6.7s10.4 6.7 10.4 6.7zM60.2 315c1.4 3.4 2.7 3.7 2.4 7 1.7 1.8 3.6 3.3 5.8 4.5 4.5 2.7 9.4 7.9 15 7.9 3.8 0 7.5-.7 11-2.1.9-7.1 3.6-10.2 3.6-10.2s-44.4-22.6-37.8-7.1z"/>
  <path class="st9" d="M53.4 303c0 16.6 13.4 30 30 30s30-13.4 30-30-13.4-30-30-30-30 13.4-30 30z"/>
  <path class="st11" d="M51.5 347.1l9.6 14.4s45.5 21.7 36.8-3.8c-3.8-11.2-4.3-19.5-3.6-25.1h-.1c-.5 1.9-.8 3.8-.9 5.8-.1 3.9-.2 8.9-10 10.5-16.2 2.7-24.9-7.4-26.4-9.4-1.5 2.7-3.3 5.3-5.4 7.6zM243 286.3l6 11.7c1.9-.2 3.8-.6 5.6-1.2l.5-.6c-2.5.9-10.8-14.7-10.8-14.7l-.3.2c-.5 2.7-1 4.6-1 4.6zM60.9 505.6c19.4 8.4 86.7 1.2 86.7 1.2-.2-.7-.3-1.5-.3-2.2-1.8-2.8-3.2-4.5-3.2-4.5L63.5 497s-1.3 3.6-2.6 8.6z"/>
  <path class="st17" d="M94.3 333.3l9 3.8c2.8 0 5.3-1.6 6.4-4.2 2.1-4.3 9.4 0 9.4 0s22.5-1.7 30.8 2.5c0 0 13.4-5.7 15.3-6s4.7-1.9 6-1.5 3-2.5 4-2.3 1.3-1.9 4.4-2.6 4.1.2 7.5-3.2 31-16.8 31-16.8l12.4-10.2 13.2-10.6s8.3 15.7 10.8 14.7l-25.1 30.2s-18.1 15.9-30.6 21-11.5 6.6-11.5 6.6-37.8 19.3-43.6 18.9-4.7 39.5-2.3 45.9 6.4 52.8 6.4 52.8 3.8 9.8-.2 16.6c0 0-.9 14 0 16.4 0 0-67.6 7.2-86.9-1.3 0 0-2.8-31.3 0-35.3s-2.6-12.8-2.6-12.8l-12.1-27-29.4-29.6s-4.5-24.7 15.7-40.6l13.4-11.9s7.5-6.5 9.7-6.9 1.4 0 1.4 0 8.7 12.8 26.7 9.7c9.7-1.6 9.8-6.6 10-10.5 0-2 .3-3.9.8-5.8z"/>
  <path class="st11" d="M57.4 434.9s41.5 1.7 49.8 14.7c0 0-10.8-5.1-20.4-3.6s-29.4-11.1-29.4-11.1zM103.2 480.4s-19.6 1.3-23.8-2.8-4.2-6.6-4.2-6.6l28 9.4zM53.4 394.9S70 414.5 49.8 423l3.6-28.1zM151.8 357s-6 12.3-9.1 13.1l9.1-13.1zM172.1 351.7s-15.1 13.6-17.9 14.9c0 0 15.7-14.9 17.9-14.9zM111.9 338.6s14.5 21.7 5.1 34.9c0 .1 5.3-15.6-5.1-34.9z"/>
  <path class="st9" d="M75.3 503.1l4.4 4.2.6.6 5.1 4.9c.4.3.7.6 1.1.8 20.9 15 25.1-7.8 25.1-7.8s9.3 6 10.6 1.1-21.5-11.9-24.9-11.5h-.9c-1.6-.3-3.2-.8-4.7-1.7l-1-.5c-1.9-1.1-3.4-2.1-3.4-2.1l-12 12z"/>
  <path class="st11" d="M52.6 303c0 10.6 5.6 20.4 14.7 25.8.4-.7.8-1.4 1.1-2.2 1.1-2.5 1.7-5.2 2.8-7.7 1.2-2.7 2.9-5.2 5.1-7.4.4-.4.8-.7 1.3-.9 1-.1 2 .1 2.8.8 1.3.9 2.7 1.5 4.2 1.8 1.5.3 3.1-.1 4.2-1.3 1.2-1.4 1-3.5.7-5.2-.7-3.9-2-7.8-2-11.7s1.5-8.3 5-10.2c3-1.7 6.8-1.3 10.2-2.2.5-.1 1-.3 1.5-.5-11.5-11.9-30.5-12.1-42.4-.6-5.9 5.6-9.2 13.4-9.2 21.5z"/>
  <path d="M106.2 277.2c.6.3 1.1.8 1 1.4-.1.3-.3.5-.6.7-1.4 1.1-3 2-4.8 2.4-3.4.9-7.2.5-10.2 2.2-3.4 2-5 6.3-5 10.2s1.2 7.8 2 11.7c.3 1.8.5 3.8-.7 5.2-1.1 1.1-2.7 1.6-4.2 1.3-1.5-.3-2.9-1-4.2-1.8-.8-.6-1.8-.9-2.8-.8-.5.2-1 .5-1.3.9-2.1 2.1-3.8 4.6-5 7.4-1.1 2.5-1.8 5.2-2.8 7.7-.9 2.6-2.7 4.8-5.1 6.3-2.4 1.3-5.7 1.2-7.6-.8s-1.7-4.9-2.6-7.3c-1.5-4.3-5.7-7-8.3-10.7-2.9-4.2-3.8-9.4-4.5-14.4-.4-1.6-.4-3.2-.1-4.8.3-1.1.8-2.1 1.3-3.1 2.9-6 2.9-13.6 7.5-18.5 3.5-3.6 8.8-4.7 13.8-5.3s10.2-1 14.5-3.6c1.2-.9 2.5-1.6 3.9-2.2 1.4-.4 3.3 0 3.9 1.5.1.4.3.7.5 1 .5.3 1 .3 1.5.1l6.6-1.8-.8 3.4c2.4.1 4.8-.3 7-1.2.1 1.9-2 3.1-2.7 4.9-.5 1.7 0 3.4 1.3 4.6 2.7 2.4 5.8 2 8.5 3.4z" fill="#585268"/>
  <path class="st11" d="M133.1 728.3l.3 3 .1.1c10.8 6 33.2-10.8 33.2-10.8l-2.4-2.3c-.8.9-1.1 2-1 3.2l-4.6.3-5.5 5.9s-14.8 1.7-18.8.8l-1.3-.2z"/>
  <path class="st13" d="M135 744.8c7.1 1.6 31.7 1.5 31.7 1.5l13.8 2.2s23.7 2.3 26.4-5.1-2.1-6.9-2.1-6.9h-.2l-9.9-.8s-12.5-4.8-17.1-8.2c-3.6-2.8-7.1-5.9-10.3-9.2 0 0-4.1-.8-4 4l-4.6.3-5.5 5.9s-14.8 1.7-18.8.8H133l.6 7.3-.2.2c-.7 1-4.7 6.5 1.6 8z"/>
  <circle class="st14" cx="160.6" cy="726.4" r=".7"/>
  <circle class="st14" cx="178.3" cy="734.1" r=".7"/>
  <circle class="st14" cx="187.4" cy="736.9" r=".7"/>
  <circle class="st14" cx="173.6" cy="732.6" r=".7"/>
  <circle class="st14" cx="182.9" cy="735.5" r=".7"/>
  <circle class="st14" cx="168.9" cy="730.5" r=".7"/>
  <circle class="st14" cx="164.3" cy="728.4" r=".7"/>
  <path class="st15" d="M135 744.8c7.1 1.6 31.7 1.5 31.7 1.5l13.8 2.2s23.7 2.3 26.4-5.1-2.1-6.9-2.1-6.9h-.2c-1.5 2-4.5 4.2-10.5 4.3l-17.1.7-17.7-1.3s-16.6-.5-19.3-1.1c-2.3-.6-4.5-1.4-6.6-2.4-.7 1.1-4.7 6.6 1.6 8.1z"/>
  <path class="st16" d="M179.2 746.8c.9 0 1.9-.1 2.8-.3l-.2-.7c-2.3.5-4.7.4-7-.3-.8-.2-1.7-.5-2.5-.7-1.5-.5-3.1-.9-4.6-1.2-2.5-.3-5.1-.4-7.6-.2h-.5c-7.6.4-15.2.1-22.7-1-1.7-.3-3.6-.7-4.8-1.9l-.5.5c1.4 1.4 3.4 1.9 5.3 2.2 7.6 1.1 15.2 1.4 22.8 1h.5c2.5-.2 5-.1 7.5.2 1.5.3 3 .7 4.5 1.1.8.3 1.7.5 2.5.7 1.4.3 3 .5 4.5.6z"/>
  <path class="st11" d="M75.3 503.1l4.4 4.2 11-14.1c-1.9-1.1-3.4-2.1-3.4-2.1l-12 12z"/>
  <path class="st17" d="M25.3 387.2l-8.7 12.1v12.6s-4 13.4 0 26.8l-.4 11.7s4.2 10.8 2.7 13.4c0 0 .8 7.9 11 13.4s21.7 18.5 21.7 18.5 4.4 8.3 16.1 6.4l11.1 4.7 12.8-16.4-17.4-9.4s-6-8.1-9.6-7.7l-14.7-17.2s-.4-5.5-4.1-5.5c0 0 7-5.7 4.5-9.1s-.5-18.5-.5-18.5l-24.5-35.8z"/>
  <path class="st11" d="M41.5 442.3s-19.8-.4-22.3 4.7 16.3-7.5 22.3-4.7zM80.3 506.9c0 .3 0 .7.1 1 .5 3.1 3.1 5.5 6.2 5.7h.4c3.7 0 6.7-3 6.7-6.7 0-.7-.1-1.5-.4-2.2 3.1-2.5 3.3-7.1 3.2-9.3-1.6-.3-3.2-.8-4.7-1.7-.8 2.4-1.9 4.6-3.3 6.7-3.6-.9-7.2 1.3-8 4.9-.2.5-.2 1-.2 1.6z"/>
  <path class="st14" d="M91.2 492.2s4.5 1 4.5 1.8 1 8.2-3.9 11.2-4.4-4.2-4.4-4.2 4.2-6.5 3.8-8.8z"/>
  <circle cx="86.2" cy="506.9" r="6.7" fill="#e4aab4"/>
  <circle class="st15" cx="86.2" cy="506.9" r="5.7"/>
  <path class="st11" d="M112.2 509.4s-14.1 11.7-32.2 4.3v5.7s12.1 8.3 23 3.3 9.2-13.3 9.2-13.3z"/>
  <path class="st11" d="M112.2 507.9s-14.1 11.7-32.2 4.3v5.7s12.1 8.3 23 3.3 9.2-13.3 9.2-13.3z"/>
  <path class="st10" d="M112.2 507.9s-14.1 11.7-32.2 4.3v5.7s12.1 8.3 23 3.3 9.2-13.3 9.2-13.3z"/>
  <path class="st12" d="M111.8 507.9s-14.1 11.7-32.2 4.3v5.7s12.1 8.3 23 3.3 9.2-13.3 9.2-13.3z"/>
  <path class="st11" d="M156.5 718.2s-18.9 3.5-21.6 4.2.8 2.1.8 2.1 17.1-3.1 20.8-6.3zM156.9 708.2c-.3 0-12.8-3.5-15.5-9.6M138.6 635.9s-5.1 6.7-8.4 6.5 5.5-6.7 8.4-6.5zM135.8 647s-2.1 4.7-5.3 3.2"/>
  <path class="st12" d="M123.9 543.4l-13.4 35.3s-1.9-22.7 2.1-29.5c2.4-4 6.8-6.3 11.3-5.8z"/>
  <g class="st20">
    <path d="M91 263.6l.1-.5 2.1-.6-.2 1.1h-2zM96.9 272.1l-.2-.2c-1.3-1.2-1.8-2.9-1.3-4.6.3-.6.6-1.2 1.1-1.7 1.1-.2 2.1-.5 3.1-.9.1 1.9-2 3.1-2.7 4.9-.3.8-.3 1.7 0 2.5zM61.2 330.1c2.3-1.5 4.1-3.7 5-6.3 1.1-2.5 1.7-5.2 2.8-7.7 1.2-2.7 2.9-5.2 5-7.4.4-.4.8-.7 1.3-.9 1-.1 2 .1 2.8.8 1.3.9 2.7 1.5 4.2 1.8 1.5.3 3.1-.1 4.2-1.3 1.2-1.4 1-3.5.7-5.3-.7-3.9-2-7.8-2-11.7s1.5-8.3 4.9-10.2c3.1-1.7 6.8-1.3 10.2-2.2 1.7-.5 3.4-1.3 4.8-2.4l.3-.2c.3.1.6.2.8.4.5.3 1.1.8 1 1.4-.1.3-.3.5-.6.7-1.4 1.1-3 2-4.8 2.4-3.4.9-7.2.5-10.2 2.2-3.4 2-5 6.3-4.9 10.2s1.2 7.8 2 11.7c.3 1.8.5 3.8-.7 5.2-1.1 1.1-2.7 1.6-4.2 1.3-1.5-.3-2.9-1-4.2-1.8-.8-.6-1.8-.9-2.8-.8-.5.2-1 .5-1.3.9-2.1 2.1-3.8 4.6-5 7.4-1.1 2.5-1.8 5.2-2.8 7.7-.9 2.6-2.7 4.8-5 6.3-2.4 1.3-5.7 1.2-7.6-.8-.5-.6-.9-1.2-1.1-1.9 2.1 1.7 4.9 1.8 7.2.5zM50.4 320.5c-1.9-2.4-4.4-4.4-6.1-6.9-.4-.5-.7-1-1-1.5 2.3 2.9 5.4 5.2 7.1 8.4z"/>
  </g>
  <path opacity=".2" d="M548.3 258.4l-262 52.2V163.3l233.8-46.7z"/>
  <g class="st6">
    <path class="st7" d="M333.8 143.2h403.4v144.5H333.8z"/>
    <path class="st2" d="M737.3 143.2h-12v1h12v-1zm-24 0h-12v1h12v-1zm-24 0h-12v1h12v-1zm-24 0h-12v1h12v-1zm-24 0h-12v1h12v-1zm-24 0h-12v1h12v-1zm-24 0h-12v1h12v-1zm-24 0h-12v1h12v-1zm-24 0h-12v1h12v-1zm-24 0h-12v1h12v-1zm-24 0h-12v1h12v-1zm-24 0h-12v1h12v-1zm-24 0h-12v1h12v-1zm-24 0h-12v1h12v-1zm-24 0h-12v1h12v-1zm-24 0h-12v1h12v-1zm-24 0h-12v1h12v-1zm-18.5 4.6h-1v12h1v-12zm0 24h-1v12h1v-12zm0 24h-1v12h1v-12zm0 24h-1v12h1v-12zm0 24h-1v12h1v-12zm0 24h-1v12h1v-12zm15.1 18.9h-12v1h12v-1zm24 0h-12v1h12v-1zm24 0h-12v1h12v-1zm24 0h-12v1h12v-1zm24 0h-12v1h12v-1zm24 0h-12v1h12v-1zm24 0h-12v1h12v-1zm24 0h-12v1h12v-1zm24 0h-12v1h12v-1zm24 0h-12v1h12v-1zm24 0h-12v1h12v-1zm24 0h-12v1h12v-1zm24 0h-12v1h12v-1zm24 0h-12v1h12v-1zm24 0h-12v1h12v-1zm24 0h-12v1h12v-1zm24 0h-12v1h12v-1zm3.4-19.6h-1v12h1v-12zm0-24h-1v12h1v-12zm0-24h-1v12h1v-12zm0-24h-1v12h1v-12zm0-24h-1v12h1v-12zm0-24h-1v12h1v-12z"/>
  </g>
  <g class="st6">
    <path class="st7" d="M333.8 515.6h403.4v144.5H333.8z"/>
    <path class="st2" d="M737.3 515.6h-12v1h12v-1zm-24 0h-12v1h12v-1zm-24 0h-12v1h12v-1zm-24 0h-12v1h12v-1zm-24 0h-12v1h12v-1zm-24 0h-12v1h12v-1zm-24 0h-12v1h12v-1zm-24 0h-12v1h12v-1zm-24 0h-12v1h12v-1zm-24 0h-12v1h12v-1zm-24 0h-12v1h12v-1zm-24 0h-12v1h12v-1zm-24 0h-12v1h12v-1zm-24 0h-12v1h12v-1zm-24 0h-12v1h12v-1zm-24 0h-12v1h12v-1zm-24 0h-12v1h12v-1zm-18.5 4.6h-1v12h1v-12zm0 24h-1v12h1v-12zm0 24h-1v12h1v-12zm0 24h-1v12h1v-12zm0 24h-1v12h1v-12zm0 24h-1v12h1v-12zm15.1 18.9h-12v1h12v-1zm24 0h-12v1h12v-1zm24 0h-12v1h12v-1zm24 0h-12v1h12v-1zm24 0h-12v1h12v-1zm24 0h-12v1h12v-1zm24 0h-12v1h12v-1zm24 0h-12v1h12v-1zm24 0h-12v1h12v-1zm24 0h-12v1h12v-1zm24 0h-12v1h12v-1zm24 0h-12v1h12v-1zm24 0h-12v1h12v-1zm24 0h-12v1h12v-1zm24 0h-12v1h12v-1zm24 0h-12v1h12v-1zm24 0h-12v1h12v-1zm3.4-19.6h-1v12h1v-12zm0-24h-1v12h1v-12zm0-24h-1v12h1v-12zm0-24h-1v12h1v-12zm0-24h-1v12h1v-12zm0-24h-1v12h1v-12z"/>
  </g>
  <path transform="rotate(-11.275 319.602 217.02)" class="st5" d="M117.9 144.8h403.4v144.5H117.9z"/>
  <path transform="rotate(-11.275 319.602 217.02)" opacity=".4" fill="#f56565" d="M117.9 144.8h403.4v144.5H117.9z"/>
  <path class="st5" d="M524.6 404.8l-1.3-1.3c-.6-.5-.6-1.4 0-2l11.2-11.2c.5-.6 1.4-.6 2 0l11.2 11.2c.6.5.6 1.4 0 2l-1.3 1.3c-.5.6-1.4.6-2 0l-6.6-7v16.6c0 .8-.6 1.4-1.4 1.4h-1.8c-.8 0-1.4-.6-1.4-1.4v-16.6l-6.6 7c-.6.6-1.4.5-2 0z"/>
  <path class="st5" d="M535.5 380.1c12.6 0 22.8 10.2 22.8 22.8 0 12.6-10.2 22.8-22.8 22.8-12.6 0-22.8-10.2-22.8-22.8.1-12.6 10.3-22.8 22.8-22.8m0-3c-14.2 0-25.8 11.5-25.8 25.8 0 14.2 11.5 25.8 25.8 25.8 14.2 0 25.8-11.5 25.8-25.8s-11.5-25.8-25.8-25.8zM524.6 589.8l-1.3-1.3c-.6-.5-.6-1.4 0-2l11.2-11.2c.5-.6 1.4-.6 2 0l11.2 11.2c.6.5.6 1.4 0 2l-1.3 1.3c-.5.6-1.4.6-2 0l-6.7-7v16.6c0 .8-.6 1.4-1.4 1.4h-1.8c-.8 0-1.4-.6-1.4-1.4v-16.6l-6.6 7c-.4.5-1.3.5-1.9 0z"/>
  <path class="st5" d="M535.5 565.1c12.6 0 22.8 10.2 22.8 22.8 0 12.6-10.2 22.8-22.8 22.8-12.6 0-22.8-10.2-22.8-22.8.1-12.6 10.3-22.8 22.8-22.8m0-3c-14.2 0-25.8 11.5-25.8 25.8 0 14.2 11.5 25.8 25.8 25.8 14.2 0 25.8-11.5 25.8-25.8s-11.5-25.8-25.8-25.8z"/>
  <path class="st2" d="M931.6 634.5s7.1 9.3-3.3 23.4-19 26-15.5 34.8c0 0 15.7-26.2 28.5-26.5s4.4-16-9.7-31.7z"/>
  <path class="st11" d="M931.6 634.5c.6.9 1.1 1.9 1.5 2.9 12.5 14.7 19.2 28.4 7.1 28.7-11.2.3-24.6 20.3-27.8 25.4.1.4.2.8.4 1.2 0 0 15.7-26.2 28.5-26.5s4.4-16-9.7-31.7z"/>
  <path class="st24" d="M944.8 646.4c0 3.3-.4 5.9-.8 5.9s-.8-2.7-.8-5.9.5-1.7.9-1.7.7-1.6.7 1.7z"/>
  <path class="st24" d="M949.4 650.3c-2.9 1.6-5.4 2.5-5.6 2.1s2-2 4.8-3.6 1.8-.4 2 0 1.7 0-1.2 1.5z"/>
  <path class="st2" d="M893.9 634.5s-7.1 9.3 3.3 23.4 19 26 15.5 34.8c0 0-15.7-26.2-28.5-26.5s-4.4-16 9.7-31.7z"/>
  <path class="st11" d="M893.9 634.5c-.6.9-1.1 1.9-1.5 2.9-12.5 14.7-19.2 28.4-7.1 28.7 11.2.3 24.6 20.3 27.8 25.4-.1.4-.2.8-.4 1.2 0 0-15.7-26.2-28.5-26.5s-4.4-16 9.7-31.7z"/>
  <path class="st24" d="M880.6 646.4c0 3.3.4 5.9.8 5.9s.8-2.7.8-5.9-.5-1.7-.9-1.7-.7-1.6-.7 1.7z"/>
  <path class="st24" d="M876.1 650.3c2.9 1.6 5.4 2.5 5.6 2.1s-1.9-2-4.8-3.6-1.8-.4-2 0-1.7 0 1.2 1.5z"/>
  <ellipse class="st0" cx="912.7" cy="752.6" rx="74.6" ry="11.5"/>
  <path d="M951.1 680.1l-.4 2.9-.5 4.1-.2 1.7-.5 4.1-.2 1.7-.5 4.1-5.7 46.8c-.5 4.2-7.3 7.4-15.6 7.4h-29.7c-8.2 0-15.1-3.3-15.6-7.4l-5.7-46.8-.5-4.1-.2-1.7-.5-4.1-.2-1.7-.5-4.1-.4-2.9c-.3-2.4 3.4-4.4 8.1-4.4H943c4.7.1 8.4 2.1 8.1 4.4z" fill="#65617d"/>
  <path class="st26" d="M950.8 683l-.5 4.1h-75.1l-.5-4.1zM950.1 688.8l-.5 4.2h-73.7l-.5-4.2zM949.3 694.7l-.5 4.1h-72.2l-.5-4.1z"/>
  <circle class="st5" cx="218.7" cy="239.7" r="42.8"/>
  <path transform="rotate(-11.392 407.827 199.737)" class="st5" d="M313.6 146h188.6v107.5H313.6z"/>
  <path transform="rotate(-11.392 402.139 171.464)" class="st0" d="M324.6 162.5h155.2v18H324.6z"/>
  <path transform="rotate(-11.392 407.827 196.893)" class="st0" d="M330.3 187.9h155.2v18H330.3z"/>
</svg>
